<svg width="45" height="47" viewBox="0 0 45 47" fill="none" xmlns="http://www.w3.org/2000/svg">
  <circle cx="22.3874" cy="6.99607" r="6.99607" fill="#5CC5C7"></circle>
  <path d="M12.5931 23.3204C12.5931 17.911 16.9782 13.5259 22.3876 13.5259V13.5259C27.7969 13.5259 32.1821 17.911 32.1821 23.3204V30.3164H12.5931V23.3204Z" fill="#5CC5C7"></path>
  <path d="M8.95758 37.9445L6.87545 33.5811L4.79331 37.9445L0 38.5764L3.50648 41.905L2.62619 46.6589L6.87545 44.3527L11.1247 46.6589L10.6846 44.282L6.87545 40.5771L10.2444 41.905L13.7509 38.5764L8.95758 37.9445Z" fill="#5CC5C7"></path>
  <path d="M24.3489 37.9445L22.2667 33.5811L20.1846 37.9445L15.3913 38.5764L18.8978 41.905L18.0175 46.6589L22.2667 44.3527L26.516 46.6589L26.0759 44.282L22.2667 40.5771L25.6357 41.905L29.1422 38.5764L24.3489 37.9445Z" fill="#5CC5C7"></path>
  <path d="M40.2065 37.9445L38.1244 33.5811L36.0423 37.9445L31.249 38.5764L34.7554 41.905L33.8751 46.6589L38.1244 44.3527L42.3737 46.6589L41.9335 44.282L38.1244 40.5771L41.4934 41.905L44.9999 38.5764L40.2065 37.9445Z" fill="#5CC5C7"></path>
</svg>