<svg width="54" height="52" viewBox="0 0 54 52" fill="none" xmlns="http://www.w3.org/2000/svg">
  <path d="M0 26.9673C0 22.8491 3.3384 19.5107 7.45652 19.5107H11.1848V38.6847H7.45652C3.3384 38.6847 0 35.3463 0 31.2281V26.9673Z" fill="#5CC5C7"></path>
  <path d="M53.2609 26.9673C53.2609 22.8491 49.9225 19.5107 45.8043 19.5107H42.0761V38.6847H45.8043C49.9225 38.6847 53.2609 35.3463 53.2609 31.2281V26.9673Z" fill="#5CC5C7"></path>
  <path d="M21.3044 48.8045C21.3044 47.0396 22.7351 45.6089 24.5 45.6089H28.7609C30.5258 45.6089 31.9565 47.0396 31.9565 48.8045C31.9565 50.5694 30.5258 52.0002 28.7609 52.0002H24.5C22.7351 52.0002 21.3044 50.5694 21.3044 48.8045Z" fill="#5CC5C7"></path>
  <path d="M19.7064 48.0055H18.1086C13.5057 48.0055 9.68215 44.6691 8.92439 40.2827H7.30621C8.07939 45.5554 12.6213 49.6034 18.1086 49.6034H19.7064V48.0055Z" fill="#5CC5C7"></path>
  <path d="M53.2609 26.9673C53.2609 22.8491 49.9225 19.5107 45.8043 19.5107H42.0761V38.6847H45.8043C49.9225 38.6847 53.2609 35.3463 53.2609 31.2281V26.9673Z" fill="#5CC5C7"></path>
  <path d="M9.05434 29.6304V20.5761C9.05434 10.8691 16.9234 3 26.6304 3V3C36.3374 3 44.2065 10.8691 44.2065 20.5761V29.6304" stroke="#5CC5C7" stroke-width="4.26087"></path>
</svg>